<svg width="1332" height="244" viewBox="0 0 1332 244" fill="none" xmlns="http://www.w3.org/2000/svg">
<path d="M279.822 53.5635C294.826 53.5635 309.11 58.6331 318.758 67.8467C329.919 78.5085 335.707 94.0366 335.944 113.999V114.351L252.245 114.357C250.622 143.012 268.511 166.666 291.863 168.412C308.969 169.69 324 159.215 332.369 141.932L334.776 142.777C330.013 174.937 310.908 198.896 278.102 198.896C240.726 198.896 219.683 167.793 218.775 128.875C218.749 127.37 218.759 125.875 218.792 124.391C218.812 123.464 218.849 122.541 218.896 121.621C218.919 121.13 218.943 120.668 218.979 120.153C219.016 119.638 219.053 119.122 219.097 118.607C220.442 101.424 225.979 86.1342 235.118 74.8203C240.796 67.7972 247.618 62.4457 255.354 58.8672C262.15 55.4493 271.701 53.5635 279.487 53.5635H279.822ZM470.655 173.539C470.655 186.582 475.851 190.185 486.084 192.603L486.355 192.655V194.883H430.568V173.379C424.178 189.398 410.218 198.896 392.867 198.896C363.207 198.896 343.279 171.713 343.282 131.27C343.282 108.625 349.801 89.1006 362.13 74.8135C373.957 61.1049 390.357 53.5566 408.3 53.5566C417.147 53.5567 424.439 55.4596 430.568 59.3691V35.5771C430.568 30.3065 429.279 26.5605 426.635 24.1191C423.257 21.0022 417.439 19.8185 408.862 20.5107L408.48 20.541V18.2998L470.655 0V173.539ZM681.614 173.539C681.614 186.582 686.81 190.185 697.043 192.603L697.308 192.692V194.92H641.517V172.847C635.176 188.739 620.782 198.896 604.358 198.896C584.969 198.896 572.593 190.054 567.869 173.145L566.865 168.78C566.064 164.387 565.676 159.928 565.704 155.463V91.4951C565.704 77.3987 562.396 73.2451 550.325 72.1748L549.99 72.1445V69.9736L605.781 53.9707V154.409C605.781 169.268 612.46 177.452 624.588 177.452C632.066 177.191 638.24 173.329 641.53 166.824V91.2412C641.53 77.0846 638.678 72.6931 628.81 71.6562L628.494 71.623V69.4424L681.614 53.9678V173.539ZM60.4375 8.55762L112.496 130.795L164.555 8.55762H220.62V10.6816L220.346 10.7422C210.116 13.0498 204.92 16.4906 204.92 28.9014H204.873L204.92 177.793C205.797 187.595 211.07 190.623 220.346 192.713L220.62 192.776V194.883H149.216V192.776L149.49 192.713C158.756 190.623 163.905 187.595 164.782 177.793V32.9453L95.959 194.549H92.166L25.291 37.3291V174.205C25.2911 186.616 30.4864 190.058 40.7197 192.365L40.9912 192.425V194.549H0V192.418L0.271484 192.358C10.5049 190.051 15.7207 186.609 15.7207 174.198V28.9014C15.7206 16.4906 10.5245 13.0498 0.291016 10.7422L0.0205078 10.6816V8.55762H60.4375ZM538.611 173.539H538.655C538.655 186.582 543.85 190.185 554.084 192.603L554.369 192.655V194.883H498.531V91.4951C498.531 77.4019 495.227 73.2483 483.155 72.1748L482.82 72.1445V69.9707L538.611 53.9678V173.539ZM859.938 53.5566C883.819 53.5567 898.076 68.6933 898.076 94.0537V175.389C898.076 185.208 902.402 190.03 913.506 192.589L913.776 192.652V194.883H857.996V95.6484C857.996 79.6057 852.281 71.8096 840.521 71.8096C830.803 71.8096 825.808 78.8432 823.324 84.7861C823.837 87.8448 824.084 90.9427 824.062 94.0439V176.984C824.062 186.716 826.92 190.509 835.777 192.589L836.053 192.655V194.883H783.983V95.6484C783.983 79.8367 778.105 71.8098 766.51 71.8096C757.174 71.8096 752.45 78.2879 750.106 83.7559V176.984C750.107 186.716 752.965 190.509 761.822 192.589L762.098 192.655V194.883H710.042V90.6055C710.042 76.8735 706.594 72.5998 694.666 71.543L694.332 71.5127V69.3252L750.123 53.9775V77.3447C755.764 62.4022 768.913 53.5566 785.691 53.5566C804.793 53.5568 817.711 62.6737 822.2 79.2617C827.851 63.6067 842.53 53.5566 859.938 53.5566ZM414.951 61.4395C397.708 61.4396 386.567 84.5856 386.567 120.37C386.567 137.564 389.386 152.078 394.742 162.346C399.727 171.91 406.743 177.175 414.419 177.175C422.095 177.175 427.823 173.596 430.568 167.092V71.2617C427.857 65.0178 422.172 61.4395 414.951 61.4395ZM279.26 61.7197C263.513 62.0442 254.129 80.887 252.961 106.993H300.762C301.25 86.6162 298.087 72.9811 291.358 66.4561C288.192 63.3926 284.117 61.8 279.26 61.7197ZM517.233 1.44727C529.877 1.44727 539.408 10.9724 539.408 23.6006C539.408 36.229 529.877 45.7539 517.233 45.7539C504.66 45.7537 494.805 36.0215 494.805 23.6006C494.805 11.1798 504.65 1.44747 517.233 1.44727Z" fill="black"/>
<path d="M1271.22 211.177C1263.19 231.386 1253.85 243.303 1233.62 243.303C1228.43 243.303 1225.32 242.785 1221.17 241.749V226.463C1225.84 228.017 1228.69 228.277 1232.84 228.277C1242.7 228.277 1248.4 223.872 1254.63 208.586L1262.41 189.932L1211.58 59.354H1229.73L1271.48 169.724L1313.24 59.354H1331.13L1271.22 211.177Z" fill="black"/>
<path d="M1142.19 197.193C1118.59 197.193 1098.62 183.72 1098.62 158.848C1098.62 131.645 1121.19 120.245 1154.9 113.509L1184.2 107.55V99.2591C1184.2 81.6414 1174.09 72.0553 1154.38 72.0553C1135.71 72.0553 1123.52 81.1233 1119.11 97.9637L1102.77 93.0411C1109.26 71.2781 1128.97 56.7694 1154.9 56.7694C1183.69 56.7694 1201.32 71.2781 1201.32 98.4819V170.507C1201.32 180.093 1208.58 183.202 1218.18 180.352V194.861C1198.47 197.711 1186.54 192.011 1185.24 176.984C1177.46 188.125 1161.38 197.193 1142.19 197.193ZM1184.2 149.78V121.281L1159.83 126.463C1132.86 131.904 1116 138.381 1116 158.589C1116 173.357 1126.89 182.943 1144.01 182.943C1166.83 182.943 1184.2 167.657 1184.2 149.78Z" fill="black"/>
<path d="M940.652 194.595V8.57251H997.187C1052.94 8.57251 1088.73 44.8442 1088.73 101.584C1088.73 158.323 1052.94 194.595 997.187 194.595H940.652ZM958.546 178.79H997.187C1042.83 178.79 1070.84 147.96 1070.84 101.584C1070.84 54.9485 1042.83 24.3766 996.928 24.3766H958.546V178.79Z" fill="black"/>
</svg>
